<?xml version="1.0" standalone="no"?>
<!DOCTYPE svg PUBLIC "-//W3C//DTD SVG 20010904//EN"
 "http://www.w3.org/TR/2001/REC-SVG-20010904/DTD/svg10.dtd">
<svg version="1.0" xmlns="http://www.w3.org/2000/svg"
 width="736.000000pt" height="736.000000pt" viewBox="0 0 736.000000 736.000000"
 preserveAspectRatio="xMidYMid meet">
<metadata>
Created by potrace 1.11, written by Peter Selinger 2001-2013
</metadata>
<g transform="translate(0.000000,736.000000) scale(0.100000,-0.100000)"
fill="#000000" stroke="none">
<path d="M1440 6155 c0 -3 593 -909 1317 -2013 724 -1104 1457 -2221 1628
-2482 l312 -475 604 0 604 0 0 2485 0 2485 -547 3 -548 2 -2 -1620 -3 -1621
-1061 1618 -1062 1618 -621 3 c-341 1 -621 0 -621 -3z"/>
<path d="M1440 2425 l0 -1245 545 0 545 0 0 1245 0 1245 -545 0 -545 0 0
-1245z"/>
</g>
</svg>
